<svg width="22" height="22" viewBox="0 0 22 22" fill="none" xmlns="http://www.w3.org/2000/svg">
<path d="M2.75 16.5V11C2.75 8.81196 3.61919 6.71354 5.16637 5.16637C6.71354 3.61919 8.81196 2.75 11 2.75C13.188 2.75 15.2865 3.61919 16.8336 5.16637C18.3808 6.71354 19.25 8.81196 19.25 11V16.5" stroke="#889310" stroke-width="2" stroke-linecap="round" stroke-linejoin="round"/>
<path d="M19.25 17.4168C19.25 17.9031 19.0568 18.3694 18.713 18.7132C18.3692 19.057 17.9029 19.2502 17.4167 19.2502H16.5C16.0138 19.2502 15.5475 19.057 15.2036 18.7132C14.8598 18.3694 14.6667 17.9031 14.6667 17.4168V14.6668C14.6667 14.1806 14.8598 13.7143 15.2036 13.3705C15.5475 13.0267 16.0138 12.8335 16.5 12.8335H19.25V17.4168ZM2.75 17.4168C2.75 17.9031 2.94315 18.3694 3.28697 18.7132C3.63079 19.057 4.0971 19.2502 4.58333 19.2502H5.5C5.98623 19.2502 6.45255 19.057 6.79636 18.7132C7.14018 18.3694 7.33333 17.9031 7.33333 17.4168V14.6668C7.33333 14.1806 7.14018 13.7143 6.79636 13.3705C6.45255 13.0267 5.98623 12.8335 5.5 12.8335H2.75V17.4168Z" stroke="#889310" stroke-width="2" stroke-linecap="round" stroke-linejoin="round"/>
</svg>
