<svg width="84" height="24" viewBox="0 0 84 24" fill="none" xmlns="http://www.w3.org/2000/svg">
<path d="M29.8887 8.80485L29.8833 8.79773C29.451 8.26189 29.1182 7.60729 28.9562 6.89484C28.7064 5.80005 28.8707 4.57364 29.3561 3.49215C29.8415 2.41065 30.6416 1.48767 31.647 0.988273L31.6481 0.987716C31.8451 0.888028 31.9079 0.881666 31.9432 0.890596C31.9594 0.8947 31.9844 0.906024 32.0257 0.943337C32.0681 0.981748 32.1183 1.03891 32.1864 1.12383C32.8895 1.99513 33.2507 3.15685 33.2688 4.3312C33.2869 5.50558 32.962 6.67866 32.3117 7.57132C31.866 8.18313 31.2911 8.6368 30.6585 8.95072L30.6483 8.95624C30.5195 9.03174 30.4255 9.08054 30.3509 9.10781C30.278 9.13448 30.2372 9.13542 30.2101 9.12982C30.1834 9.12429 30.1476 9.10778 30.0936 9.05594C30.0379 9.0026 29.9738 8.92254 29.8887 8.80485Z" fill="#91D9BF" stroke="#91D9BF" stroke-width="0.3354"/>
<path d="M7.45713 8.63983L7.46305 8.6331C7.93158 8.12752 8.3092 7.49677 8.52047 6.79682C8.84597 5.72131 8.7673 4.48669 8.3583 3.37512C7.94929 2.26353 7.2153 1.28901 6.24704 0.723303L6.24596 0.722672C6.05635 0.609982 5.99425 0.599473 5.95853 0.605998C5.9421 0.608998 5.91632 0.618603 5.87259 0.653069C5.82757 0.688545 5.77352 0.742205 5.69969 0.822361C4.93752 1.64444 4.49629 2.77925 4.39648 3.94967C4.29667 5.12014 4.53921 6.31232 5.12588 7.24656C5.52799 7.88687 6.06993 8.37807 6.67913 8.7337L6.68894 8.7399C6.81217 8.82388 6.90257 8.87886 6.97505 8.91107C7.04593 8.94257 7.08654 8.94623 7.11391 8.94246C7.14094 8.93875 7.17773 8.92469 7.23528 8.87659C7.29448 8.82711 7.3641 8.75153 7.45713 8.63983Z" fill="#91D9BF" stroke="#91D9BF" stroke-width="0.3354"/>
<path d="M29.718 13.4116L29.7183 13.4028C29.7203 12.719 29.8754 12.0031 30.2009 11.3464C30.7004 10.3368 31.6074 9.47818 32.6733 8.92951C33.7393 8.38082 34.9505 8.14895 36.0533 8.37383L36.0545 8.37408C36.2719 8.41674 36.3243 8.4501 36.3458 8.47813C36.3558 8.49108 36.3682 8.51519 36.3768 8.5697C36.3856 8.62577 36.3886 8.70124 36.3879 8.80935C36.3849 9.92151 35.9301 11.0515 35.1989 11.9813C34.4677 12.9111 33.469 13.6296 32.394 13.9296C31.6573 14.1352 30.92 14.138 30.2264 13.9963L30.2148 13.9944C30.0662 13.9746 29.9618 13.9552 29.8863 13.9309C29.8126 13.9072 29.7804 13.8831 29.763 13.8624C29.7458 13.8419 29.7283 13.8073 29.7189 13.7335C29.7093 13.6577 29.7099 13.5557 29.718 13.4116Z" fill="#91D9BF" stroke="#91D9BF" stroke-width="0.3354"/>
<path d="M7.73607 13.4116L7.73581 13.4028C7.73383 12.719 7.57871 12.0031 7.25324 11.3464C6.75378 10.3368 5.84673 9.47818 4.7808 8.92951C3.71481 8.38082 2.50358 8.14895 1.40085 8.37383L1.39961 8.37408C1.18219 8.41674 1.12977 8.4501 1.10827 8.47813C1.09834 8.49108 1.08592 8.51519 1.07734 8.5697C1.06851 8.62577 1.06554 8.70124 1.06619 8.80935C1.06916 9.92151 1.52398 11.0515 2.25517 11.9813C2.9864 12.9111 3.98506 13.6296 5.06006 13.9296C5.79682 14.1352 6.5341 14.138 7.22772 13.9963L7.2393 13.9944C7.38792 13.9746 7.49229 13.9552 7.56777 13.9309C7.64153 13.9072 7.6737 13.8831 7.69108 13.8624C7.7083 13.8419 7.72579 13.8073 7.73519 13.7335C7.74485 13.6577 7.74424 13.5557 7.73607 13.4116Z" fill="#91D9BF" stroke="#91D9BF" stroke-width="0.3354"/>
<path d="M27.2764 17.192L27.2816 17.1849C27.6695 16.6166 28.2031 16.1049 28.8454 15.7353C29.8321 15.1666 31.0726 14.946 32.2698 15.0701C33.4672 15.1941 34.6056 15.661 35.3955 16.448L35.3964 16.4489C35.5535 16.603 35.5768 16.6581 35.5788 16.6913C35.5797 16.7068 35.5766 16.7335 35.5528 16.7838C35.5284 16.8353 35.4882 16.8999 35.4266 16.9895C34.7958 17.9141 33.7785 18.6074 32.6442 18.9831C31.5099 19.3589 30.2725 19.4128 29.2084 19.0769C28.4793 18.8467 27.8645 18.4477 27.3678 17.9524L27.3591 17.9443C27.2466 17.8469 27.1709 17.7741 27.1221 17.7131C27.0744 17.6536 27.0618 17.6169 27.0591 17.5913C27.0564 17.5657 27.0612 17.5276 27.0952 17.4607C27.1301 17.3922 27.1883 17.3075 27.2764 17.192Z" fill="#91D9BF" stroke="#91D9BF" stroke-width="0.3354"/>
<path d="M10.1777 17.191L10.1725 17.1839C9.78464 16.6156 9.25095 16.1039 8.6087 15.7343C7.622 15.1655 6.38146 14.9451 5.18432 15.0691C3.98694 15.1931 2.84853 15.66 2.05859 16.447L2.05768 16.4479C1.90062 16.602 1.8773 16.6571 1.87535 16.6903C1.87443 16.7058 1.87754 16.7325 1.90129 16.7828C1.92566 16.8344 1.96587 16.8989 2.02746 16.9886C2.65828 17.9132 3.67558 18.6064 4.80986 18.9821C5.94422 19.3579 7.1816 19.4119 8.24567 19.0759C8.97478 18.8457 9.58956 18.4467 10.0863 17.9514L10.095 17.9433C10.2075 17.8459 10.2832 17.7731 10.332 17.7122C10.3797 17.6527 10.3923 17.616 10.395 17.5904C10.3977 17.5647 10.3929 17.5266 10.3589 17.4597C10.324 17.3912 10.2658 17.3065 10.1777 17.191Z" fill="#91D9BF" stroke="#91D9BF" stroke-width="0.3354"/>
<path d="M21.8263 19.7156L21.8339 19.7111C22.421 19.3426 23.1187 19.0832 23.8582 18.9968C24.9946 18.8632 26.2217 19.1487 27.2684 19.7329C28.3155 20.3172 29.1685 21.1924 29.5718 22.2237L29.5723 22.2249C29.6535 22.428 29.6521 22.4869 29.6407 22.5174C29.6352 22.5318 29.6216 22.555 29.5793 22.5918C29.5359 22.6296 29.4727 22.6729 29.3798 22.7309C28.4248 23.3306 27.2097 23.5663 26.0167 23.4649C24.8237 23.3635 23.6675 22.9266 22.829 22.2006C22.2546 21.7032 21.8538 21.0959 21.6003 20.4471L21.5955 20.4361C21.5321 20.3026 21.4925 20.2063 21.4726 20.1314C21.4532 20.0584 21.4566 20.0201 21.4645 19.996C21.4724 19.9718 21.4922 19.9387 21.5507 19.8907C21.6106 19.8416 21.6984 19.7868 21.8263 19.7156Z" fill="#91D9BF" stroke="#91D9BF" stroke-width="0.3354"/>
<path d="M15.6278 19.7156L15.6202 19.7111C15.0331 19.3426 14.3354 19.0832 13.5959 18.9968C12.4595 18.8632 11.2324 19.1487 10.1857 19.7329C9.1386 20.3172 8.28558 21.1924 7.88228 22.2237L7.8818 22.2249C7.80059 22.428 7.80197 22.4869 7.81343 22.5174C7.81885 22.5318 7.83247 22.555 7.8748 22.5918C7.91818 22.6296 7.98136 22.6729 8.07434 22.7309C9.02932 23.3306 10.2444 23.5663 11.4374 23.4649C12.6304 23.3635 13.7866 22.9266 14.6251 22.2006C15.1995 21.7032 15.6003 21.0959 15.8538 20.4471L15.8586 20.4361C15.922 20.3026 15.9616 20.2063 15.9815 20.1314C16.0009 20.0584 15.9975 20.0201 15.9896 19.996C15.9817 19.9718 15.9619 19.9387 15.9034 19.8907C15.8435 19.8416 15.7557 19.7868 15.6278 19.7156Z" fill="#91D9BF" stroke="#91D9BF" stroke-width="0.3354"/>
<path d="M29.4603 4.60498C30.0221 5.94328 30.332 7.40966 30.332 8.94713C30.332 14.1105 26.8366 18.472 22.0433 19.8733M7.99525 4.60498C7.43344 5.94328 7.12354 7.40966 7.12354 8.94713C7.12354 14.1105 10.6189 18.472 15.4123 19.8733" stroke="#91D9BF" stroke-width="0.87592" stroke-linecap="round"/>
<path fill-rule="evenodd" clip-rule="evenodd" d="M11.7491 2.92087C11.208 3.04096 10.8071 3.50687 10.8071 4.05172V7.58178C10.8071 11.5175 12.9582 15.1987 16.5554 16.9325C17.6307 17.4508 18.4978 17.8276 18.7463 17.8276C18.9947 17.8276 19.861 17.451 20.9353 16.933C24.5312 15.1989 26.6811 11.5184 26.6811 7.58368V4.05172C26.6811 3.50687 26.2802 3.04096 25.7392 2.92087C24.9011 2.73485 23.6642 2.40962 22.7126 1.94518C22.1503 1.67072 21.588 1.34766 21.0609 1.04486C20.1002 0.492902 19.2567 0.00830078 18.7441 0.00830078C18.2316 0.00830078 17.3881 0.492902 16.4273 1.04486C15.9003 1.34765 15.338 1.67072 14.7756 1.94518C13.824 2.40962 12.5872 2.73485 11.7491 2.92087ZM21.4492 6.24543C21.7092 5.97416 22.1438 5.96122 22.42 6.21654C22.6961 6.47185 22.7093 6.89873 22.4494 7.17L18.0721 11.7381C17.7414 12.0833 17.1857 12.0915 16.8445 11.7564L14.7192 9.66891C14.451 9.4055 14.451 8.97842 14.7192 8.71501C14.9874 8.4516 15.4222 8.4516 15.6904 8.71501L17.438 10.4316L21.4492 6.24543Z" fill="#00A76A"/>
<path d="M45.0341 17.9998V16.4771L49.0739 12.5168C49.4602 12.1267 49.7822 11.7801 50.0398 11.4771C50.2974 11.174 50.4905 10.8805 50.6193 10.5964C50.7481 10.3123 50.8125 10.0093 50.8125 9.6873C50.8125 9.31987 50.7292 9.00548 50.5625 8.74411C50.3958 8.47896 50.1667 8.27442 49.875 8.13048C49.5833 7.98654 49.2519 7.91457 48.8807 7.91457C48.4981 7.91457 48.1629 7.99411 47.875 8.1532C47.5871 8.30851 47.3636 8.5301 47.2045 8.81798C47.0492 9.10586 46.9716 9.44866 46.9716 9.84639H44.9659C44.9659 9.10775 45.1345 8.4657 45.4716 7.92025C45.8087 7.3748 46.2727 6.95245 46.8636 6.6532C47.4583 6.35396 48.1402 6.20434 48.9091 6.20434C49.6894 6.20434 50.375 6.35017 50.9659 6.64184C51.5568 6.93351 52.0152 7.33313 52.3409 7.8407C52.6705 8.34828 52.8352 8.92783 52.8352 9.57934C52.8352 10.0149 52.7519 10.443 52.5852 10.8634C52.4186 11.2839 52.125 11.7498 51.7045 12.2612C51.2879 12.7725 50.7027 13.3918 49.9489 14.1191L47.9432 16.1589V16.2384H53.0114V17.9998H45.0341Z" fill="black"/>
<path d="M59.2727 18.2214C58.3371 18.2214 57.5341 17.9846 56.8636 17.5112C56.197 17.0339 55.6837 16.3464 55.3239 15.4487C54.9678 14.5471 54.7898 13.4619 54.7898 12.193C54.7936 10.924 54.9735 9.84449 55.3295 8.95434C55.6894 8.0604 56.2027 7.37858 56.8693 6.90889C57.5398 6.43919 58.3409 6.20434 59.2727 6.20434C60.2045 6.20434 61.0057 6.43919 61.6761 6.90889C62.3466 7.37858 62.8598 8.0604 63.2159 8.95434C63.5758 9.84828 63.7557 10.9278 63.7557 12.193C63.7557 13.4657 63.5758 14.5528 63.2159 15.4543C62.8598 16.3521 62.3466 17.0377 61.6761 17.5112C61.0095 17.9846 60.2083 18.2214 59.2727 18.2214ZM59.2727 16.443C60 16.443 60.5739 16.085 60.9943 15.3691C61.4186 14.6494 61.6307 13.5907 61.6307 12.193C61.6307 11.2687 61.5341 10.4922 61.3409 9.86343C61.1477 9.23464 60.875 8.76116 60.5227 8.44298C60.1705 8.12101 59.7538 7.96002 59.2727 7.96002C58.5492 7.96002 57.9773 8.31987 57.5568 9.03957C57.1364 9.75548 56.9242 10.8066 56.9205 12.193C56.9167 13.121 57.0095 13.9013 57.1989 14.5339C57.392 15.1665 57.6648 15.6437 58.017 15.9657C58.3693 16.2839 58.7879 16.443 59.2727 16.443Z" fill="black"/>
<path d="M70.3764 6.36343V17.9998H68.2685V8.41457H68.2003L65.4787 10.1532V8.22139L68.3707 6.36343H70.3764Z" fill="black"/>
<path d="M77.3707 6.20434C77.9276 6.20813 78.4692 6.30661 78.9957 6.4998C79.526 6.68919 80.0033 6.9998 80.4276 7.43161C80.8518 7.85964 81.1889 8.43351 81.4389 9.1532C81.6889 9.8729 81.8139 10.7631 81.8139 11.8237C81.8177 12.8237 81.7117 13.7176 81.4957 14.5055C81.2836 15.2896 80.9787 15.9524 80.581 16.4941C80.1832 17.0358 79.7041 17.4487 79.1435 17.7328C78.5829 18.0168 77.9522 18.1589 77.2514 18.1589C76.5166 18.1589 75.8651 18.0149 75.2969 17.7271C74.7325 17.4392 74.276 17.0452 73.9276 16.5452C73.5791 16.0452 73.3651 15.4733 73.2855 14.8293H75.3594C75.4654 15.2915 75.6813 15.6589 76.0071 15.9316C76.3367 16.2006 76.7514 16.335 77.2514 16.335C78.0582 16.335 78.6795 15.9846 79.1151 15.2839C79.5507 14.5831 79.7685 13.6096 79.7685 12.3634H79.6889C79.5033 12.6968 79.2628 12.9846 78.9673 13.2271C78.6719 13.4657 78.3367 13.6494 77.9617 13.7782C77.5904 13.907 77.1965 13.9714 76.7798 13.9714C76.098 13.9714 75.4844 13.8085 74.9389 13.4827C74.3973 13.157 73.9673 12.71 73.6491 12.1418C73.3348 11.5737 73.1757 10.924 73.1719 10.193C73.1719 9.4354 73.3461 8.75548 73.6946 8.1532C74.0469 7.54714 74.5374 7.06987 75.1662 6.72139C75.795 6.36911 76.5298 6.19676 77.3707 6.20434ZM77.3764 7.90889C76.9673 7.90889 76.598 8.00927 76.2685 8.21002C75.9427 8.40699 75.6851 8.67593 75.4957 9.01684C75.3101 9.35396 75.2173 9.73086 75.2173 10.1475C75.2211 10.5604 75.3139 10.9354 75.4957 11.2725C75.6813 11.6096 75.9332 11.8767 76.2514 12.0737C76.5734 12.2706 76.9408 12.3691 77.3537 12.3691C77.6605 12.3691 77.9465 12.3104 78.2117 12.193C78.4768 12.0756 78.7079 11.9127 78.9048 11.7043C79.1056 11.4922 79.2609 11.2517 79.3707 10.9828C79.4844 10.7138 79.5393 10.4297 79.5355 10.1305C79.5355 9.73275 79.4408 9.36533 79.2514 9.0282C79.0658 8.69108 78.8101 8.42025 78.4844 8.2157C78.1624 8.01116 77.7931 7.90889 77.3764 7.90889Z" fill="black"/>
</svg>
