<svg width="113" height="27" viewBox="0 0 113 27" fill="none" xmlns="http://www.w3.org/2000/svg">
<g clip-path="url(#clip0_1_652)">
<path d="M19.3842 1.78531e-05H8.81006V13.9536H23.0869V3.61047C23.0869 3.13538 22.991 2.66496 22.8048 2.22618C22.6186 1.7874 22.3456 1.38888 22.0017 1.05347C21.6577 0.718061 21.2495 0.452355 20.8003 0.271581C20.3512 0.0908086 19.8699 -0.00147613 19.3842 1.78531e-05Z" fill="black"/>
<path d="M5.51342 0H3.69109C2.71215 0 1.77331 0.380385 1.08109 1.05747C0.388881 1.73456 0 2.6529 0 3.61045V5.39296H5.51342V0Z" fill="black"/>
<path d="M0 8.61768H5.51342V14.0107H0V8.61768Z" fill="black"/>
<path d="M17.6201 22.5829H19.4424C19.928 22.5829 20.409 22.4891 20.8576 22.307C21.3061 22.1248 21.7136 21.8578 22.0565 21.5214C22.3994 21.1849 22.671 20.7856 22.8558 20.3463C23.0406 19.9069 23.135 19.4362 23.1334 18.9611V17.2354H17.6201V22.5829Z" fill="black"/>
<path d="M8.81006 17.2354H14.3234V22.6283H8.81006V17.2354Z" fill="black"/>
<path d="M0 17.2354V19.0179C0 19.9754 0.388881 20.8938 1.08109 21.5708C1.77331 22.2479 2.71215 22.6283 3.69109 22.6283H5.51342V17.2354H0Z" fill="black"/>
<path d="M37.1789 1.44287H35.02V21.1868H46.4531V19.3021H37.1789V1.44287Z" fill="black"/>
<path d="M53.3939 6.67627C49.1921 6.67627 46.2323 9.73036 46.2323 14.1243V14.6238C46.3011 16.4825 47.1016 18.2431 48.4665 19.538C49.8314 20.8328 51.6551 21.5617 53.5564 21.5722H53.835C55.8016 21.5688 57.7026 20.8806 59.1975 19.6308V19.574L58.2226 18.0185L58.1181 18.0753C56.9576 19.1343 55.4336 19.7297 53.8466 19.7442C53.1208 19.7601 52.3994 19.631 51.7263 19.3648C51.0533 19.0987 50.4429 18.701 49.9322 18.1963C49.4217 17.6916 49.0217 17.0902 48.7567 16.4291C48.4917 15.7681 48.3674 15.061 48.3912 14.3513H59.302V14.2378C59.302 14.2378 59.302 13.5679 59.302 13.2387C59.4065 9.23086 57.027 6.67627 53.3939 6.67627ZM48.5073 12.5688C48.6469 11.4289 49.2102 10.379 50.0898 9.61907C50.9695 8.8591 52.1042 8.44204 53.2779 8.44744C55.1002 8.44744 57.0966 9.5147 57.2591 12.5688H48.5073Z" fill="black"/>
<path d="M71.9648 8.34586V9.08385C71.5108 8.34395 70.8697 7.73077 70.1034 7.30327C69.3371 6.87577 68.4711 6.64833 67.5889 6.64282H67.322C63.4568 6.64282 60.7871 9.64021 60.7871 14.034C60.7871 18.4279 63.3407 21.4933 67.1478 21.4933C68.1172 21.5385 69.0807 21.3233 69.934 20.871C70.7872 20.4187 71.4975 19.7466 71.988 18.9275V21.096H74.0309V1.44287H71.9648V8.34586ZM67.5309 19.6313C64.8612 19.6313 63.0969 17.3606 63.0969 14.068C63.0969 10.7756 64.9657 8.56156 67.5889 8.56156C69.7595 8.56156 71.9648 10.2874 71.9648 14.068C71.9648 18.1667 69.6434 19.6313 67.4845 19.6313H67.5309Z" fill="black"/>
<path d="M86.5313 8.61838V8.73186C86.1247 8.06203 84.8827 6.62012 81.8881 6.62012C78.0809 6.62012 75.5738 9.4585 75.5738 13.7956C75.5738 18.1327 78.1969 21.0732 82.0622 21.0732C82.9523 21.1379 83.8433 20.9598 84.6363 20.559C85.4293 20.1582 86.0931 19.5502 86.5545 18.8025V20.7554C86.5545 23.4802 84.7898 25.0356 81.656 25.0356C80.3052 25.0441 78.9721 24.7366 77.7675 24.1387L77.6631 24.082L76.8622 25.8077L76.9783 25.8645C78.44 26.5894 80.052 26.9778 81.6907 26.9998C85.0453 26.9998 88.655 25.3309 88.655 20.7099V7.08561H86.5313V8.61838ZM82.3176 19.3021C79.5318 19.3021 77.6746 17.1903 77.6746 13.9091C77.6746 10.6279 79.2648 8.67516 81.9925 8.67516C84.9988 8.67516 86.4269 10.4009 86.4269 13.9091C86.4269 17.4174 85.0453 19.3021 82.3176 19.3021Z" fill="black"/>
<path d="M97.2205 6.67627C93.0076 6.67627 90.105 9.73036 90.105 14.0675V14.5671C90.1654 16.4455 90.971 18.2273 92.3512 19.5348C93.7313 20.8424 95.5781 21.5731 97.4991 21.5722H97.789C99.7497 21.5613 101.642 20.8691 103.128 19.6194L102.143 17.9617H102.026C100.869 19.02 99.3494 19.6156 97.7666 19.6308C97.0402 19.6465 96.3183 19.5174 95.6446 19.2514C94.9709 18.9854 94.3593 18.588 93.8478 18.0833C93.3363 17.5788 92.9352 16.9776 92.6695 16.3164C92.4029 15.6553 92.277 14.948 92.2994 14.2378H103.303V14.1243C103.303 14.1243 103.303 13.4544 103.303 13.1251C103.303 9.23086 100.912 6.67627 97.2205 6.67627ZM92.3805 12.5688C92.5228 11.428 93.0887 10.3779 93.9703 9.61814C94.8518 8.85834 95.9879 8.44178 97.1627 8.44744C98.9733 8.44744 100.969 9.5147 101.132 12.5688H92.3805Z" fill="black"/>
<path d="M112.171 6.94948C111.881 6.94948 111.66 6.94948 111.371 6.83594C110.367 6.86423 109.398 7.19452 108.594 7.78175C107.79 8.36897 107.191 9.18453 106.878 10.1171V6.94948H104.778V21.0166V21.1302H106.937V15.1808C106.944 14.2664 107.096 13.3586 107.389 12.49C108.074 10.3215 109.607 8.93639 111.428 8.93639C111.656 8.91386 111.886 8.91386 112.113 8.93639H112.23V6.94948H112.171Z" fill="black"/>
</g>
<defs>
<clipPath id="clip0_1_652">
<rect width="113" height="27" fill="white"/>
</clipPath>
</defs>
</svg>
