<svg width="32" height="32" viewBox="0 0 32 32" fill="none" xmlns="http://www.w3.org/2000/svg">
<g id="usdt" clip-path="url(#clip0_55_771)">
<path id="Vector" d="M15.734 0C24.3806 0 31.3908 7.01013 31.3908 15.6568C31.3908 24.3035 24.3803 31.3137 15.734 31.3137C7.08765 31.3137 0.0771484 24.3053 0.0771484 15.6568C0.0771484 7.00837 7.0864 0 15.734 0Z" fill="#53AE94"/>
<path id="Vector_2" d="M17.6662 13.5709V11.2419H22.9924V7.69299H8.48904V11.2419H13.8158V13.5691C9.48673 13.768 6.23157 14.6252 6.23157 15.6523C6.23157 16.6794 9.48824 17.5367 13.8158 17.7368V25.1972H17.6673V17.7363C21.9886 17.5369 25.237 16.6802 25.237 15.6539C25.237 14.6277 21.9886 13.7711 17.6673 13.5716L17.6662 13.5709ZM17.6674 17.1044V17.1025C17.5588 17.1093 17.0004 17.1428 15.7573 17.1428C14.7634 17.1428 14.0641 17.1146 13.8177 17.1019V17.105C9.99308 16.9357 7.13817 16.2695 7.13817 15.4725C7.13817 14.6756 9.99337 14.0106 13.8177 13.8408V16.4414C14.0683 16.4587 14.7847 16.5009 15.7736 16.5009C16.9614 16.5009 17.5584 16.4515 17.6681 16.4414V13.8408C21.4852 14.0108 24.3335 14.6775 24.3335 15.4717C24.3335 16.2658 21.4832 16.9325 17.6674 17.1025" fill="white"/>
</g>
<defs>
<clipPath id="clip0_55_771">
<rect width="32" height="32" fill="white"/>
</clipPath>
</defs>
</svg>
