<svg width="126" height="126" viewBox="0 0 126 126" fill="none" xmlns="http://www.w3.org/2000/svg">
<path d="M3.81818 0H0V3.81818H3.81818V0Z" fill="black"/>
<path d="M7.63636 0H3.81818V3.81818H7.63636V0Z" fill="black"/>
<path d="M11.4545 0H7.63636V3.81818H11.4545V0Z" fill="black"/>
<path d="M15.2727 0H11.4545V3.81818H15.2727V0Z" fill="black"/>
<path d="M19.0909 0H15.2727V3.81818H19.0909V0Z" fill="black"/>
<path d="M22.9091 0H19.0909V3.81818H22.9091V0Z" fill="black"/>
<path d="M26.7273 0H22.9091V3.81818H26.7273V0Z" fill="black"/>
<path d="M34.3636 0H30.5455V3.81818H34.3636V0Z" fill="black"/>
<path d="M38.1818 0H34.3636V3.81818H38.1818V0Z" fill="black"/>
<path d="M49.6364 0H45.8182V3.81818H49.6364V0Z" fill="black"/>
<path d="M57.2727 0H53.4546V3.81818H57.2727V0Z" fill="black"/>
<path d="M68.7273 0H64.9091V3.81818H68.7273V0Z" fill="black"/>
<path d="M84 0H80.1818V3.81818H84V0Z" fill="black"/>
<path d="M95.4545 0H91.6364V3.81818H95.4545V0Z" fill="black"/>
<path d="M103.091 0H99.2727V3.81818H103.091V0Z" fill="black"/>
<path d="M106.909 0H103.091V3.81818H106.909V0Z" fill="black"/>
<path d="M110.727 0H106.909V3.81818H110.727V0Z" fill="black"/>
<path d="M114.545 0H110.727V3.81818H114.545V0Z" fill="black"/>
<path d="M118.364 0H114.545V3.81818H118.364V0Z" fill="black"/>
<path d="M122.182 0H118.364V3.81818H122.182V0Z" fill="black"/>
<path d="M126 0H122.182V3.81818H126V0Z" fill="black"/>
<path d="M3.81818 3.81818H0V7.63636H3.81818V3.81818Z" fill="black"/>
<path d="M26.7273 3.81818H22.9091V7.63636H26.7273V3.81818Z" fill="black"/>
<path d="M49.6364 3.81818H45.8182V7.63636H49.6364V3.81818Z" fill="black"/>
<path d="M53.4546 3.81818H49.6364V7.63636H53.4546V3.81818Z" fill="black"/>
<path d="M57.2727 3.81818H53.4546V7.63636H57.2727V3.81818Z" fill="black"/>
<path d="M64.9091 3.81818H61.0909V7.63636H64.9091V3.81818Z" fill="black"/>
<path d="M68.7273 3.81818H64.9091V7.63636H68.7273V3.81818Z" fill="black"/>
<path d="M72.5455 3.81818H68.7273V7.63636H72.5455V3.81818Z" fill="black"/>
<path d="M80.1818 3.81818H76.3636V7.63636H80.1818V3.81818Z" fill="black"/>
<path d="M84 3.81818H80.1818V7.63636H84V3.81818Z" fill="black"/>
<path d="M95.4545 3.81818H91.6364V7.63636H95.4545V3.81818Z" fill="black"/>
<path d="M103.091 3.81818H99.2727V7.63636H103.091V3.81818Z" fill="black"/>
<path d="M126 3.81818H122.182V7.63636H126V3.81818Z" fill="black"/>
<path d="M3.81818 7.63636H0V11.4545H3.81818V7.63636Z" fill="black"/>
<path d="M11.4545 7.63636H7.63636V11.4545H11.4545V7.63636Z" fill="black"/>
<path d="M15.2727 7.63636H11.4545V11.4545H15.2727V7.63636Z" fill="black"/>
<path d="M19.0909 7.63636H15.2727V11.4545H19.0909V7.63636Z" fill="black"/>
<path d="M26.7273 7.63636H22.9091V11.4545H26.7273V7.63636Z" fill="black"/>
<path d="M45.8182 7.63636H42V11.4545H45.8182V7.63636Z" fill="black"/>
<path d="M49.6364 7.63636H45.8182V11.4545H49.6364V7.63636Z" fill="black"/>
<path d="M68.7273 7.63636H64.9091V11.4545H68.7273V7.63636Z" fill="black"/>
<path d="M72.5455 7.63636H68.7273V11.4545H72.5455V7.63636Z" fill="black"/>
<path d="M76.3636 7.63636H72.5455V11.4545H76.3636V7.63636Z" fill="black"/>
<path d="M80.1818 7.63636H76.3636V11.4545H80.1818V7.63636Z" fill="black"/>
<path d="M84 7.63636H80.1818V11.4545H84V7.63636Z" fill="black"/>
<path d="M95.4545 7.63636H91.6364V11.4545H95.4545V7.63636Z" fill="black"/>
<path d="M103.091 7.63636H99.2727V11.4545H103.091V7.63636Z" fill="black"/>
<path d="M110.727 7.63636H106.909V11.4545H110.727V7.63636Z" fill="black"/>
<path d="M114.545 7.63636H110.727V11.4545H114.545V7.63636Z" fill="black"/>
<path d="M118.364 7.63636H114.545V11.4545H118.364V7.63636Z" fill="black"/>
<path d="M126 7.63636H122.182V11.4545H126V7.63636Z" fill="black"/>
<path d="M3.81818 11.4545H0V15.2727H3.81818V11.4545Z" fill="black"/>
<path d="M11.4545 11.4545H7.63636V15.2727H11.4545V11.4545Z" fill="black"/>
<path d="M15.2727 11.4545H11.4545V15.2727H15.2727V11.4545Z" fill="black"/>
<path d="M19.0909 11.4545H15.2727V15.2727H19.0909V11.4545Z" fill="black"/>
<path d="M26.7273 11.4545H22.9091V15.2727H26.7273V11.4545Z" fill="black"/>
<path d="M38.1818 11.4545H34.3636V15.2727H38.1818V11.4545Z" fill="black"/>
<path d="M42 11.4545H38.1818V15.2727H42V11.4545Z" fill="black"/>
<path d="M45.8182 11.4545H42V15.2727H45.8182V11.4545Z" fill="black"/>
<path d="M49.6364 11.4545H45.8182V15.2727H49.6364V11.4545Z" fill="black"/>
<path d="M53.4546 11.4545H49.6364V15.2727H53.4546V11.4545Z" fill="black"/>
<path d="M57.2727 11.4545H53.4546V15.2727H57.2727V11.4545Z" fill="black"/>
<path d="M61.0909 11.4545H57.2727V15.2727H61.0909V11.4545Z" fill="black"/>
<path d="M68.7273 11.4545H64.9091V15.2727H68.7273V11.4545Z" fill="black"/>
<path d="M76.3636 11.4545H72.5455L72.5455 15.2727H76.3636V11.4545Z" fill="black"/>
<path d="M84 11.4545H80.1818V15.2727H84V11.4545Z" fill="black"/>
<path d="M91.6364 11.4545H87.8182V15.2727H91.6364V11.4545Z" fill="black"/>
<path d="M95.4545 11.4545H91.6364V15.2727H95.4545V11.4545Z" fill="black"/>
<path d="M103.091 11.4545H99.2727V15.2727H103.091V11.4545Z" fill="black"/>
<path d="M110.727 11.4545H106.909V15.2727H110.727V11.4545Z" fill="black"/>
<path d="M114.545 11.4545H110.727V15.2727H114.545V11.4545Z" fill="black"/>
<path d="M118.364 11.4545H114.545V15.2727H118.364V11.4545Z" fill="black"/>
<path d="M126 11.4545H122.182V15.2727H126V11.4545Z" fill="black"/>
<path d="M3.81818 15.2727H0V19.0909H3.81818V15.2727Z" fill="black"/>
<path d="M11.4545 15.2727H7.63636V19.0909H11.4545V15.2727Z" fill="black"/>
<path d="M15.2727 15.2727H11.4545V19.0909H15.2727V15.2727Z" fill="black"/>
<path d="M19.0909 15.2727H15.2727V19.0909H19.0909V15.2727Z" fill="black"/>
<path d="M26.7273 15.2727H22.9091V19.0909H26.7273V15.2727Z" fill="black"/>
<path d="M34.3636 15.2727H30.5455V19.0909H34.3636V15.2727Z" fill="black"/>
<path d="M38.1818 15.2727H34.3636V19.0909H38.1818V15.2727Z" fill="black"/>
<path d="M53.4546 15.2727H49.6364V19.0909H53.4546V15.2727Z" fill="black"/>
<path d="M57.2727 15.2727H53.4546V19.0909H57.2727V15.2727Z" fill="black"/>
<path d="M72.5455 15.2727H68.7273V19.0909H72.5455L72.5455 15.2727Z" fill="black"/>
<path d="M76.3636 15.2727H72.5455L72.5455 19.0909H76.3636V15.2727Z" fill="black"/>
<path d="M84 15.2727H80.1818V19.0909H84V15.2727Z" fill="black"/>
<path d="M87.8182 15.2727H84V19.0909H87.8182V15.2727Z" fill="black"/>
<path d="M103.091 15.2727H99.2727V19.0909H103.091V15.2727Z" fill="black"/>
<path d="M110.727 15.2727H106.909V19.0909H110.727V15.2727Z" fill="black"/>
<path d="M114.545 15.2727H110.727V19.0909H114.545V15.2727Z" fill="black"/>
<path d="M118.364 15.2727H114.545V19.0909H118.364V15.2727Z" fill="black"/>
<path d="M126 15.2727H122.182V19.0909H126V15.2727Z" fill="black"/>
<path d="M3.81818 19.0909H0V22.9091H3.81818V19.0909Z" fill="black"/>
<path d="M26.7273 19.0909H22.9091V22.9091H26.7273V19.0909Z" fill="black"/>
<path d="M42 19.0909H38.1818V22.9091H42V19.0909Z" fill="black"/>
<path d="M45.8182 19.0909H42V22.9091H45.8182V19.0909Z" fill="black"/>
<path d="M49.6364 19.0909H45.8182V22.9091H49.6364V19.0909Z" fill="black"/>
<path d="M53.4546 19.0909H49.6364V22.9091H53.4546V19.0909Z" fill="black"/>
<path d="M57.2727 19.0909H53.4546V22.9091H57.2727V19.0909Z" fill="black"/>
<path d="M61.0909 19.0909H57.2727V22.9091H61.0909V19.0909Z" fill="black"/>
<path d="M72.5455 19.0909H68.7273V22.9091H72.5455V19.0909Z" fill="black"/>
<path d="M76.3636 19.0909H72.5455V22.9091H76.3636V19.0909Z" fill="black"/>
<path d="M80.1818 19.0909H76.3636V22.9091H80.1818V19.0909Z" fill="black"/>
<path d="M87.8182 19.0909H84V22.9091H87.8182V19.0909Z" fill="black"/>
<path d="M103.091 19.0909H99.2727V22.9091H103.091V19.0909Z" fill="black"/>
<path d="M126 19.0909H122.182V22.9091H126V19.0909Z" fill="black"/>
<path d="M3.81818 22.9091H0V26.7273H3.81818V22.9091Z" fill="black"/>
<path d="M7.63636 22.9091H3.81818V26.7273H7.63636V22.9091Z" fill="black"/>
<path d="M11.4545 22.9091H7.63636V26.7273H11.4545V22.9091Z" fill="black"/>
<path d="M15.2727 22.9091H11.4545V26.7273H15.2727V22.9091Z" fill="black"/>
<path d="M19.0909 22.9091H15.2727V26.7273H19.0909V22.9091Z" fill="black"/>
<path d="M22.9091 22.9091H19.0909V26.7273H22.9091V22.9091Z" fill="black"/>
<path d="M26.7273 22.9091H22.9091V26.7273H26.7273V22.9091Z" fill="black"/>
<path d="M34.3636 22.9091H30.5455V26.7273H34.3636V22.9091Z" fill="black"/>
<path d="M42 22.9091H38.1818V26.7273H42V22.9091Z" fill="black"/>
<path d="M49.6364 22.9091H45.8182V26.7273H49.6364V22.9091Z" fill="black"/>
<path d="M57.2727 22.9091H53.4546V26.7273H57.2727V22.9091Z" fill="black"/>
<path d="M64.9091 22.9091H61.0909V26.7273H64.9091V22.9091Z" fill="black"/>
<path d="M72.5455 22.9091H68.7273V26.7273H72.5455V22.9091Z" fill="black"/>
<path d="M80.1818 22.9091H76.3636V26.7273H80.1818V22.9091Z" fill="black"/>
<path d="M87.8182 22.9091H84V26.7273H87.8182V22.9091Z" fill="black"/>
<path d="M95.4545 22.9091H91.6364V26.7273H95.4545V22.9091Z" fill="black"/>
<path d="M103.091 22.9091H99.2727V26.7273H103.091V22.9091Z" fill="black"/>
<path d="M106.909 22.9091H103.091V26.7273H106.909V22.9091Z" fill="black"/>
<path d="M110.727 22.9091H106.909V26.7273H110.727V22.9091Z" fill="black"/>
<path d="M114.545 22.9091H110.727V26.7273H114.545V22.9091Z" fill="black"/>
<path d="M118.364 22.9091H114.545V26.7273H118.364V22.9091Z" fill="black"/>
<path d="M122.182 22.9091H118.364V26.7273H122.182V22.9091Z" fill="black"/>
<path d="M126 22.9091H122.182V26.7273H126V22.9091Z" fill="black"/>
<path d="M34.3636 26.7273H30.5455V30.5455H34.3636V26.7273Z" fill="black"/>
<path d="M38.1818 26.7273H34.3636V30.5455H38.1818V26.7273Z" fill="black"/>
<path d="M42 26.7273H38.1818V30.5455H42V26.7273Z" fill="black"/>
<path d="M49.6364 26.7273H45.8182V30.5455H49.6364V26.7273Z" fill="black"/>
<path d="M57.2727 26.7273H53.4546V30.5455H57.2727V26.7273Z" fill="black"/>
<path d="M64.9091 26.7273H61.0909V30.5455H64.9091V26.7273Z" fill="black"/>
<path d="M68.7273 26.7273H64.9091V30.5455H68.7273V26.7273Z" fill="black"/>
<path d="M76.3636 26.7273H72.5455L72.5455 30.5455H76.3636V26.7273Z" fill="black"/>
<path d="M84 26.7273H80.1818V30.5455H84V26.7273Z" fill="black"/>
<path d="M87.8182 26.7273H84V30.5455H87.8182V26.7273Z" fill="black"/>
<path d="M91.6364 26.7273H87.8182V30.5455H91.6364V26.7273Z" fill="black"/>
<path d="M95.4545 26.7273H91.6364V30.5455H95.4545V26.7273Z" fill="black"/>
<path d="M3.81818 30.5455H0V34.3636H3.81818V30.5455Z" fill="black"/>
<path d="M15.2727 30.5455H11.4545V34.3636H15.2727V30.5455Z" fill="black"/>
<path d="M19.0909 30.5455H15.2727V34.3636H19.0909V30.5455Z" fill="black"/>
<path d="M22.9091 30.5455H19.0909V34.3636H22.9091V30.5455Z" fill="black"/>
<path d="M26.7273 30.5455H22.9091V34.3636H26.7273V30.5455Z" fill="black"/>
<path d="M30.5455 30.5455H26.7273V34.3636H30.5455V30.5455Z" fill="black"/>
<path d="M34.3636 30.5455H30.5455V34.3636H34.3636V30.5455Z" fill="black"/>
<path d="M42 30.5455H38.1818V34.3636H42V30.5455Z" fill="black"/>
<path d="M45.8182 30.5455H42V34.3636H45.8182V30.5455Z" fill="black"/>
<path d="M61.0909 30.5455H57.2727V34.3636H61.0909V30.5455Z" fill="black"/>
<path d="M72.5455 30.5455H68.7273V34.3636H72.5455L72.5455 30.5455Z" fill="black"/>
<path d="M76.3636 30.5455H72.5455L72.5455 34.3636H76.3636V30.5455Z" fill="black"/>
<path d="M84 30.5455H80.1818V34.3636H84V30.5455Z" fill="black"/>
<path d="M99.2727 30.5455H95.4545V34.3636H99.2727V30.5455Z" fill="black"/>
<path d="M103.091 30.5455H99.2727V34.3636H103.091V30.5455Z" fill="black"/>
<path d="M110.727 30.5455H106.909V34.3636H110.727V30.5455Z" fill="black"/>
<path d="M126 30.5455H122.182V34.3636H126V30.5455Z" fill="black"/>
<path d="M3.81818 34.3636H0V38.1818H3.81818V34.3636Z" fill="black"/>
<path d="M38.1818 34.3636H34.3636V38.1818H38.1818V34.3636Z" fill="black"/>
<path d="M42 34.3636H38.1818V38.1818H42V34.3636Z" fill="black"/>
<path d="M53.4546 34.3636H49.6364V38.1818H53.4546V34.3636Z" fill="black"/>
<path d="M64.9091 34.3636H61.0909V38.1818H64.9091V34.3636Z" fill="black"/>
<path d="M72.5455 34.3636H68.7273V38.1818H72.5455V34.3636Z" fill="black"/>
<path d="M80.1818 34.3636H76.3636V38.1818H80.1818V34.3636Z" fill="black"/>
<path d="M84 34.3636H80.1818V38.1818H84V34.3636Z" fill="black"/>
<path d="M87.8182 34.3636H84V38.1818H87.8182V34.3636Z" fill="black"/>
<path d="M106.909 34.3636H103.091V38.1818H106.909V34.3636Z" fill="black"/>
<path d="M114.545 34.3636H110.727V38.1818H114.545V34.3636Z" fill="black"/>
<path d="M118.364 34.3636H114.545V38.1818H118.364V34.3636Z" fill="black"/>
<path d="M122.182 34.3636H118.364V38.1818H122.182V34.3636Z" fill="black"/>
<path d="M3.81818 38.1818H0V42H3.81818V38.1818Z" fill="black"/>
<path d="M7.63636 38.1818H3.81818V42H7.63636V38.1818Z" fill="black"/>
<path d="M11.4545 38.1818H7.63636V42H11.4545V38.1818Z" fill="black"/>
<path d="M15.2727 38.1818H11.4545V42H15.2727V38.1818Z" fill="black"/>
<path d="M19.0909 38.1818H15.2727V42H19.0909V38.1818Z" fill="black"/>
<path d="M22.9091 38.1818H19.0909V42H22.9091V38.1818Z" fill="black"/>
<path d="M26.7273 38.1818H22.9091V42H26.7273V38.1818Z" fill="black"/>
<path d="M30.5455 38.1818H26.7273V42H30.5455V38.1818Z" fill="black"/>
<path d="M42 38.1818H38.1818V42H42V38.1818Z" fill="black"/>
<path d="M61.0909 38.1818H57.2727V42H61.0909V38.1818Z" fill="black"/>
<path d="M68.7273 38.1818H64.9091V42H68.7273V38.1818Z" fill="black"/>
<path d="M72.5455 38.1818H68.7273V42H72.5455V38.1818Z" fill="black"/>
<path d="M84 38.1818H80.1818V42H84V38.1818Z" fill="black"/>
<path d="M87.8182 38.1818H84V42H87.8182V38.1818Z" fill="black"/>
<path d="M91.6364 38.1818H87.8182V42H91.6364V38.1818Z" fill="black"/>
<path d="M118.364 38.1818H114.545V42H118.364V38.1818Z" fill="black"/>
<path d="M126 38.1818H122.182V42H126V38.1818Z" fill="black"/>
<path d="M3.81818 42H0V45.8182H3.81818V42Z" fill="black"/>
<path d="M7.63636 42H3.81818V45.8182H7.63636V42Z" fill="black"/>
<path d="M11.4545 42H7.63636V45.8182H11.4545V42Z" fill="black"/>
<path d="M22.9091 42H19.0909V45.8182H22.9091V42Z" fill="black"/>
<path d="M30.5455 42H26.7273V45.8182H30.5455V42Z" fill="black"/>
<path d="M42 42H38.1818V45.8182H42V42Z" fill="black"/>
<path d="M45.8182 42H42V45.8182H45.8182V42Z" fill="black"/>
<path d="M49.6364 42H45.8182V45.8182H49.6364V42Z" fill="black"/>
<path d="M53.4546 42H49.6364V45.8182H53.4546V42Z" fill="black"/>
<path d="M57.2727 42H53.4546V45.8182H57.2727V42Z" fill="black"/>
<path d="M61.0909 42H57.2727V45.8182H61.0909V42Z" fill="black"/>
<path d="M68.7273 42H64.9091V45.8182H68.7273V42Z" fill="black"/>
<path d="M72.5455 42H68.7273V45.8182H72.5455V42Z" fill="black"/>
<path d="M76.3636 42H72.5455V45.8182H76.3636V42Z" fill="black"/>
<path d="M80.1818 42H76.3636V45.8182H80.1818V42Z" fill="black"/>
<path d="M87.8182 42H84V45.8182H87.8182V42Z" fill="black"/>
<path d="M106.909 42H103.091V45.8182H106.909V42Z" fill="black"/>
<path d="M110.727 42H106.909V45.8182H110.727V42Z" fill="black"/>
<path d="M114.545 42H110.727V45.8182H114.545V42Z" fill="black"/>
<path d="M118.364 42H114.545V45.8182H118.364V42Z" fill="black"/>
<path d="M3.81818 45.8182H0V49.6364H3.81818V45.8182Z" fill="black"/>
<path d="M7.63636 45.8182H3.81818V49.6364H7.63636V45.8182Z" fill="black"/>
<path d="M15.2727 45.8182H11.4545V49.6364H15.2727V45.8182Z" fill="black"/>
<path d="M22.9091 45.8182H19.0909V49.6364H22.9091V45.8182Z" fill="black"/>
<path d="M26.7273 45.8182H22.9091V49.6364H26.7273V45.8182Z" fill="black"/>
<path d="M30.5455 45.8182H26.7273V49.6364H30.5455V45.8182Z" fill="black"/>
<path d="M34.3636 45.8182H30.5455V49.6364H34.3636V45.8182Z" fill="black"/>
<path d="M57.2727 45.8182H53.4546V49.6364H57.2727V45.8182Z" fill="black"/>
<path d="M68.7273 45.8182H64.9091V49.6364H68.7273V45.8182Z" fill="black"/>
<path d="M72.5455 45.8182H68.7273V49.6364H72.5455V45.8182Z" fill="black"/>
<path d="M76.3636 45.8182H72.5455V49.6364H76.3636V45.8182Z" fill="black"/>
<path d="M80.1818 45.8182H76.3636V49.6364H80.1818V45.8182Z" fill="black"/>
<path d="M91.6364 45.8182H87.8182V49.6364H91.6364V45.8182Z" fill="black"/>
<path d="M95.4545 45.8182H91.6364V49.6364H95.4545V45.8182Z" fill="black"/>
<path d="M110.727 45.8182H106.909V49.6364H110.727V45.8182Z" fill="black"/>
<path d="M118.364 45.8182H114.545V49.6364H118.364V45.8182Z" fill="black"/>
<path d="M122.182 45.8182H118.364V49.6364H122.182V45.8182Z" fill="black"/>
<path d="M126 45.8182H122.182V49.6364H126V45.8182Z" fill="black"/>
<path d="M3.81818 49.6364H0V53.4546H3.81818V49.6364Z" fill="black"/>
<path d="M7.63636 49.6364H3.81818V53.4546H7.63636V49.6364Z" fill="black"/>
<path d="M22.9091 49.6364H19.0909V53.4546H22.9091V49.6364Z" fill="black"/>
<path d="M42 49.6364H38.1818V53.4546H42V49.6364Z" fill="black"/>
<path d="M45.8182 49.6364H42V53.4546H45.8182V49.6364Z" fill="black"/>
<path d="M49.6364 49.6364H45.8182V53.4546H49.6364V49.6364Z" fill="black"/>
<path d="M53.4546 49.6364H49.6364V53.4546H53.4546V49.6364Z" fill="black"/>
<path d="M64.9091 49.6364H61.0909V53.4546H64.9091V49.6364Z" fill="black"/>
<path d="M68.7273 49.6364H64.9091V53.4546H68.7273V49.6364Z" fill="black"/>
<path d="M76.3636 49.6364H72.5455L72.5455 53.4546H76.3636V49.6364Z" fill="black"/>
<path d="M80.1818 49.6364H76.3636V53.4546H80.1818V49.6364Z" fill="black"/>
<path d="M87.8182 49.6364H84V53.4546H87.8182V49.6364Z" fill="black"/>
<path d="M99.2727 49.6364H95.4545V53.4546H99.2727V49.6364Z" fill="black"/>
<path d="M114.545 49.6364H110.727V53.4546H114.545V49.6364Z" fill="black"/>
<path d="M122.182 49.6364H118.364V53.4546H122.182V49.6364Z" fill="black"/>
<path d="M126 49.6364H122.182V53.4546H126V49.6364Z" fill="black"/>
<path d="M3.81818 53.4546H0V57.2727H3.81818V53.4546Z" fill="black"/>
<path d="M7.63636 53.4546H3.81818V57.2727H7.63636V53.4546Z" fill="black"/>
<path d="M11.4545 53.4546H7.63636V57.2727H11.4545V53.4546Z" fill="black"/>
<path d="M26.7273 53.4546H22.9091V57.2727H26.7273V53.4546Z" fill="black"/>
<path d="M30.5455 53.4546H26.7273V57.2727H30.5455V53.4546Z" fill="black"/>
<path d="M42 53.4546H38.1818V57.2727H42V53.4546Z" fill="black"/>
<path d="M53.4546 53.4546H49.6364V57.2727H53.4546V53.4546Z" fill="black"/>
<path d="M64.9091 53.4546H61.0909V57.2727H64.9091V53.4546Z" fill="black"/>
<path d="M68.7273 53.4546H64.9091V57.2727H68.7273V53.4546Z" fill="black"/>
<path d="M80.1818 53.4546H76.3636V57.2727H80.1818V53.4546Z" fill="black"/>
<path d="M84 53.4546H80.1818V57.2727H84V53.4546Z" fill="black"/>
<path d="M87.8182 53.4546H84V57.2727H87.8182V53.4546Z" fill="black"/>
<path d="M91.6364 53.4546H87.8182V57.2727H91.6364V53.4546Z" fill="black"/>
<path d="M99.2727 53.4546H95.4545V57.2727H99.2727V53.4546Z" fill="black"/>
<path d="M103.091 53.4546H99.2727V57.2727H103.091V53.4546Z" fill="black"/>
<path d="M106.909 53.4546H103.091V57.2727H106.909V53.4546Z" fill="black"/>
<path d="M114.545 53.4546H110.727V57.2727H114.545V53.4546Z" fill="black"/>
<path d="M118.364 53.4546H114.545V57.2727H118.364V53.4546Z" fill="black"/>
<path d="M126 53.4546H122.182V57.2727H126V53.4546Z" fill="black"/>
<path d="M3.81818 57.2727H0V61.0909H3.81818V57.2727Z" fill="black"/>
<path d="M11.4545 57.2727H7.63636V61.0909H11.4545V57.2727Z" fill="black"/>
<path d="M15.2727 57.2727H11.4545V61.0909H15.2727V57.2727Z" fill="black"/>
<path d="M22.9091 57.2727H19.0909V61.0909H22.9091V57.2727Z" fill="black"/>
<path d="M34.3636 57.2727H30.5455V61.0909H34.3636V57.2727Z" fill="black"/>
<path d="M38.1818 57.2727H34.3636V61.0909H38.1818V57.2727Z" fill="black"/>
<path d="M42 57.2727H38.1818V61.0909H42V57.2727Z" fill="black"/>
<path d="M49.6364 57.2727H45.8182V61.0909H49.6364V57.2727Z" fill="black"/>
<path d="M57.2727 57.2727H53.4546V61.0909H57.2727V57.2727Z" fill="black"/>
<path d="M61.0909 57.2727H57.2727V61.0909H61.0909V57.2727Z" fill="black"/>
<path d="M68.7273 57.2727H64.9091V61.0909H68.7273V57.2727Z" fill="black"/>
<path d="M72.5455 57.2727H68.7273V61.0909H72.5455V57.2727Z" fill="black"/>
<path d="M76.3636 57.2727H72.5455V61.0909H76.3636V57.2727Z" fill="black"/>
<path d="M95.4545 57.2727H91.6364V61.0909H95.4545V57.2727Z" fill="black"/>
<path d="M99.2727 57.2727H95.4545V61.0909H99.2727V57.2727Z" fill="black"/>
<path d="M103.091 57.2727H99.2727V61.0909H103.091V57.2727Z" fill="black"/>
<path d="M106.909 57.2727H103.091V61.0909H106.909V57.2727Z" fill="black"/>
<path d="M110.727 57.2727H106.909V61.0909H110.727V57.2727Z" fill="black"/>
<path d="M118.364 57.2727H114.545V61.0909H118.364V57.2727Z" fill="black"/>
<path d="M122.182 57.2727H118.364V61.0909H122.182V57.2727Z" fill="black"/>
<path d="M15.2727 61.0909H11.4545V64.9091H15.2727V61.0909Z" fill="black"/>
<path d="M19.0909 61.0909H15.2727V64.9091H19.0909V61.0909Z" fill="black"/>
<path d="M26.7273 61.0909H22.9091V64.9091H26.7273V61.0909Z" fill="black"/>
<path d="M38.1818 61.0909H34.3636V64.9091H38.1818V61.0909Z" fill="black"/>
<path d="M42 61.0909H38.1818V64.9091H42V61.0909Z" fill="black"/>
<path d="M49.6364 61.0909H45.8182V64.9091H49.6364V61.0909Z" fill="black"/>
<path d="M61.0909 61.0909H57.2727V64.9091H61.0909V61.0909Z" fill="black"/>
<path d="M68.7273 61.0909H64.9091V64.9091H68.7273V61.0909Z" fill="black"/>
<path d="M76.3636 61.0909H72.5455L72.5455 64.9091H76.3636V61.0909Z" fill="black"/>
<path d="M84 61.0909H80.1818V64.9091H84V61.0909Z" fill="black"/>
<path d="M87.8182 61.0909H84V64.9091H87.8182V61.0909Z" fill="black"/>
<path d="M99.2727 61.0909H95.4545V64.9091H99.2727V61.0909Z" fill="black"/>
<path d="M110.727 61.0909H106.909V64.9091H110.727V61.0909Z" fill="black"/>
<path d="M122.182 61.0909H118.364V64.9091H122.182V61.0909Z" fill="black"/>
<path d="M11.4545 64.9091H7.63636V68.7273H11.4545V64.9091Z" fill="black"/>
<path d="M15.2727 64.9091H11.4545V68.7273H15.2727V64.9091Z" fill="black"/>
<path d="M19.0909 64.9091H15.2727V68.7273H19.0909V64.9091Z" fill="black"/>
<path d="M22.9091 64.9091H19.0909V68.7273H22.9091V64.9091Z" fill="black"/>
<path d="M30.5455 64.9091H26.7273V68.7273H30.5455V64.9091Z" fill="black"/>
<path d="M34.3636 64.9091H30.5455V68.7273H34.3636V64.9091Z" fill="black"/>
<path d="M38.1818 64.9091H34.3636V68.7273H38.1818V64.9091Z" fill="black"/>
<path d="M61.0909 64.9091H57.2727V68.7273H61.0909V64.9091Z" fill="black"/>
<path d="M64.9091 64.9091H61.0909V68.7273H64.9091V64.9091Z" fill="black"/>
<path d="M72.5455 64.9091H68.7273V68.7273H72.5455L72.5455 64.9091Z" fill="black"/>
<path d="M76.3636 64.9091H72.5455L72.5455 68.7273H76.3636V64.9091Z" fill="black"/>
<path d="M87.8182 64.9091H84V68.7273H87.8182V64.9091Z" fill="black"/>
<path d="M91.6364 64.9091H87.8182V68.7273H91.6364V64.9091Z" fill="black"/>
<path d="M95.4545 64.9091H91.6364V68.7273H95.4545V64.9091Z" fill="black"/>
<path d="M99.2727 64.9091H95.4545V68.7273H99.2727V64.9091Z" fill="black"/>
<path d="M122.182 64.9091H118.364V68.7273H122.182V64.9091Z" fill="black"/>
<path d="M126 64.9091H122.182V68.7273H126V64.9091Z" fill="black"/>
<path d="M3.81818 68.7273H0V72.5455H3.81818V68.7273Z" fill="black"/>
<path d="M7.63636 68.7273H3.81818V72.5455H7.63636V68.7273Z" fill="black"/>
<path d="M11.4545 68.7273H7.63636V72.5455H11.4545V68.7273Z" fill="black"/>
<path d="M26.7273 68.7273H22.9091V72.5455H26.7273V68.7273Z" fill="black"/>
<path d="M42 68.7273H38.1818V72.5455H42V68.7273Z" fill="black"/>
<path d="M53.4546 68.7273H49.6364V72.5455H53.4546V68.7273Z" fill="black"/>
<path d="M61.0909 68.7273H57.2727V72.5455H61.0909V68.7273Z" fill="black"/>
<path d="M68.7273 68.7273H64.9091V72.5455H68.7273V68.7273Z" fill="black"/>
<path d="M76.3636 68.7273H72.5455L72.5455 72.5455H76.3636V68.7273Z" fill="black"/>
<path d="M80.1818 68.7273H76.3636V72.5455H80.1818V68.7273Z" fill="black"/>
<path d="M87.8182 68.7273H84V72.5455H87.8182V68.7273Z" fill="black"/>
<path d="M91.6364 68.7273H87.8182V72.5455H91.6364V68.7273Z" fill="black"/>
<path d="M103.091 68.7273H99.2727V72.5455H103.091V68.7273Z" fill="black"/>
<path d="M114.545 68.7273H110.727V72.5455H114.545V68.7273Z" fill="black"/>
<path d="M122.182 68.7273H118.364V72.5455H122.182V68.7273Z" fill="black"/>
<path d="M126 68.7273H122.182V72.5455H126V68.7273Z" fill="black"/>
<path d="M7.63636 72.5455H3.81818V76.3636H7.63636V72.5455Z" fill="black"/>
<path d="M19.0909 72.5455H15.2727V76.3636H19.0909V72.5455Z" fill="black"/>
<path d="M30.5455 72.5455L26.7273 72.5455V76.3636H30.5455V72.5455Z" fill="black"/>
<path d="M45.8182 72.5455L42 72.5455V76.3636H45.8182V72.5455Z" fill="black"/>
<path d="M49.6364 72.5455L45.8182 72.5455V76.3636H49.6364V72.5455Z" fill="black"/>
<path d="M53.4546 72.5455H49.6364V76.3636H53.4546V72.5455Z" fill="black"/>
<path d="M64.9091 72.5455H61.0909V76.3636H64.9091V72.5455Z" fill="black"/>
<path d="M84 72.5455H80.1818V76.3636H84V72.5455Z" fill="black"/>
<path d="M87.8182 72.5455H84V76.3636H87.8182V72.5455Z" fill="black"/>
<path d="M91.6364 72.5455H87.8182V76.3636H91.6364V72.5455Z" fill="black"/>
<path d="M114.545 72.5455H110.727V76.3636H114.545V72.5455Z" fill="black"/>
<path d="M126 72.5455H122.182V76.3636H126V72.5455Z" fill="black"/>
<path d="M11.4545 76.3636H7.63636V80.1818H11.4545V76.3636Z" fill="black"/>
<path d="M22.9091 76.3636H19.0909V80.1818H22.9091V76.3636Z" fill="black"/>
<path d="M26.7273 76.3636H22.9091V80.1818H26.7273V76.3636Z" fill="black"/>
<path d="M30.5455 76.3636H26.7273V80.1818H30.5455V76.3636Z" fill="black"/>
<path d="M34.3636 76.3636H30.5455V80.1818H34.3636V76.3636Z" fill="black"/>
<path d="M42 76.3636H38.1818V80.1818H42V76.3636Z" fill="black"/>
<path d="M53.4546 76.3636H49.6364V80.1818H53.4546V76.3636Z" fill="black"/>
<path d="M57.2727 76.3636H53.4546V80.1818H57.2727V76.3636Z" fill="black"/>
<path d="M64.9091 76.3636H61.0909V80.1818H64.9091V76.3636Z" fill="black"/>
<path d="M72.5455 76.3636H68.7273V80.1818H72.5455V76.3636Z" fill="black"/>
<path d="M80.1818 76.3636H76.3636V80.1818H80.1818V76.3636Z" fill="black"/>
<path d="M91.6364 76.3636H87.8182V80.1818H91.6364V76.3636Z" fill="black"/>
<path d="M95.4545 76.3636H91.6364V80.1818H95.4545V76.3636Z" fill="black"/>
<path d="M106.909 76.3636H103.091V80.1818H106.909V76.3636Z" fill="black"/>
<path d="M114.545 76.3636H110.727V80.1818H114.545V76.3636Z" fill="black"/>
<path d="M118.364 76.3636H114.545V80.1818H118.364V76.3636Z" fill="black"/>
<path d="M126 76.3636H122.182V80.1818H126V76.3636Z" fill="black"/>
<path d="M11.4545 80.1818H7.63636V84H11.4545V80.1818Z" fill="black"/>
<path d="M15.2727 80.1818H11.4545V84H15.2727V80.1818Z" fill="black"/>
<path d="M22.9091 80.1818H19.0909V84H22.9091V80.1818Z" fill="black"/>
<path d="M30.5455 80.1818H26.7273V84H30.5455V80.1818Z" fill="black"/>
<path d="M34.3636 80.1818H30.5455V84H34.3636V80.1818Z" fill="black"/>
<path d="M38.1818 80.1818H34.3636V84H38.1818V80.1818Z" fill="black"/>
<path d="M53.4546 80.1818H49.6364V84H53.4546V80.1818Z" fill="black"/>
<path d="M61.0909 80.1818H57.2727V84H61.0909V80.1818Z" fill="black"/>
<path d="M64.9091 80.1818H61.0909V84H64.9091V80.1818Z" fill="black"/>
<path d="M72.5455 80.1818H68.7273V84H72.5455V80.1818Z" fill="black"/>
<path d="M76.3636 80.1818H72.5455V84H76.3636V80.1818Z" fill="black"/>
<path d="M84 80.1818H80.1818V84H84V80.1818Z" fill="black"/>
<path d="M87.8182 80.1818H84V84H87.8182V80.1818Z" fill="black"/>
<path d="M91.6364 80.1818H87.8182V84H91.6364V80.1818Z" fill="black"/>
<path d="M95.4545 80.1818H91.6364V84H95.4545V80.1818Z" fill="black"/>
<path d="M99.2727 80.1818H95.4545V84H99.2727V80.1818Z" fill="black"/>
<path d="M114.545 80.1818H110.727V84H114.545V80.1818Z" fill="black"/>
<path d="M122.182 80.1818H118.364V84H122.182V80.1818Z" fill="black"/>
<path d="M126 80.1818H122.182V84H126V80.1818Z" fill="black"/>
<path d="M15.2727 84H11.4545V87.8182H15.2727V84Z" fill="black"/>
<path d="M19.0909 84H15.2727V87.8182H19.0909V84Z" fill="black"/>
<path d="M26.7273 84H22.9091V87.8182H26.7273V84Z" fill="black"/>
<path d="M34.3636 84H30.5455V87.8182H34.3636V84Z" fill="black"/>
<path d="M45.8182 84H42V87.8182H45.8182V84Z" fill="black"/>
<path d="M49.6364 84H45.8182V87.8182H49.6364V84Z" fill="black"/>
<path d="M64.9091 84H61.0909V87.8182H64.9091V84Z" fill="black"/>
<path d="M72.5455 84H68.7273V87.8182H72.5455V84Z" fill="black"/>
<path d="M84 84H80.1818V87.8182H84V84Z" fill="black"/>
<path d="M106.909 84H103.091V87.8182H106.909V84Z" fill="black"/>
<path d="M110.727 84H106.909V87.8182H110.727V84Z" fill="black"/>
<path d="M126 84H122.182V87.8182H126V84Z" fill="black"/>
<path d="M3.81818 87.8182H0V91.6364H3.81818V87.8182Z" fill="black"/>
<path d="M22.9091 87.8182H19.0909V91.6364H22.9091V87.8182Z" fill="black"/>
<path d="M34.3636 87.8182H30.5455V91.6364H34.3636V87.8182Z" fill="black"/>
<path d="M38.1818 87.8182H34.3636V91.6364H38.1818V87.8182Z" fill="black"/>
<path d="M42 87.8182H38.1818V91.6364H42V87.8182Z" fill="black"/>
<path d="M49.6364 87.8182H45.8182V91.6364H49.6364V87.8182Z" fill="black"/>
<path d="M57.2727 87.8182H53.4546V91.6364H57.2727V87.8182Z" fill="black"/>
<path d="M68.7273 87.8182H64.9091V91.6364H68.7273V87.8182Z" fill="black"/>
<path d="M72.5455 87.8182H68.7273V91.6364H72.5455V87.8182Z" fill="black"/>
<path d="M76.3636 87.8182H72.5455V91.6364H76.3636V87.8182Z" fill="black"/>
<path d="M80.1818 87.8182H76.3636V91.6364H80.1818V87.8182Z" fill="black"/>
<path d="M84 87.8182H80.1818V91.6364H84V87.8182Z" fill="black"/>
<path d="M87.8182 87.8182H84V91.6364H87.8182V87.8182Z" fill="black"/>
<path d="M95.4545 87.8182H91.6364V91.6364H95.4545V87.8182Z" fill="black"/>
<path d="M99.2727 87.8182H95.4545V91.6364H99.2727V87.8182Z" fill="black"/>
<path d="M114.545 87.8182H110.727V91.6364H114.545V87.8182Z" fill="black"/>
<path d="M122.182 87.8182H118.364V91.6364H122.182V87.8182Z" fill="black"/>
<path d="M126 87.8182H122.182V91.6364H126V87.8182Z" fill="black"/>
<path d="M7.63636 91.6364H3.81818V95.4545H7.63636V91.6364Z" fill="black"/>
<path d="M11.4545 91.6364H7.63636V95.4545H11.4545V91.6364Z" fill="black"/>
<path d="M22.9091 91.6364H19.0909V95.4545H22.9091V91.6364Z" fill="black"/>
<path d="M26.7273 91.6364H22.9091V95.4545H26.7273V91.6364Z" fill="black"/>
<path d="M30.5455 91.6364H26.7273V95.4545H30.5455V91.6364Z" fill="black"/>
<path d="M34.3636 91.6364H30.5455V95.4545H34.3636V91.6364Z" fill="black"/>
<path d="M38.1818 91.6364H34.3636V95.4545H38.1818V91.6364Z" fill="black"/>
<path d="M42 91.6364H38.1818V95.4545H42V91.6364Z" fill="black"/>
<path d="M45.8182 91.6364H42V95.4545H45.8182V91.6364Z" fill="black"/>
<path d="M49.6364 91.6364H45.8182V95.4545H49.6364V91.6364Z" fill="black"/>
<path d="M53.4546 91.6364H49.6364V95.4545H53.4546V91.6364Z" fill="black"/>
<path d="M57.2727 91.6364H53.4546V95.4545H57.2727V91.6364Z" fill="black"/>
<path d="M64.9091 91.6364H61.0909V95.4545H64.9091V91.6364Z" fill="black"/>
<path d="M91.6364 91.6364H87.8182V95.4545H91.6364V91.6364Z" fill="black"/>
<path d="M95.4545 91.6364H91.6364V95.4545H95.4545V91.6364Z" fill="black"/>
<path d="M99.2727 91.6364H95.4545V95.4545H99.2727V91.6364Z" fill="black"/>
<path d="M103.091 91.6364H99.2727V95.4545H103.091V91.6364Z" fill="black"/>
<path d="M106.909 91.6364H103.091V95.4545H106.909V91.6364Z" fill="black"/>
<path d="M110.727 91.6364H106.909V95.4545H110.727V91.6364Z" fill="black"/>
<path d="M114.545 91.6364H110.727V95.4545H114.545V91.6364Z" fill="black"/>
<path d="M122.182 91.6364H118.364V95.4545H122.182V91.6364Z" fill="black"/>
<path d="M126 91.6364H122.182V95.4545H126V91.6364Z" fill="black"/>
<path d="M34.3636 95.4545H30.5455V99.2727H34.3636V95.4545Z" fill="black"/>
<path d="M38.1818 95.4545H34.3636V99.2727H38.1818V95.4545Z" fill="black"/>
<path d="M42 95.4545H38.1818V99.2727H42V95.4545Z" fill="black"/>
<path d="M53.4546 95.4545H49.6364V99.2727H53.4546V95.4545Z" fill="black"/>
<path d="M57.2727 95.4545H53.4546V99.2727H57.2727V95.4545Z" fill="black"/>
<path d="M61.0909 95.4545H57.2727V99.2727H61.0909V95.4545Z" fill="black"/>
<path d="M68.7273 95.4545H64.9091V99.2727H68.7273V95.4545Z" fill="black"/>
<path d="M76.3636 95.4545H72.5455V99.2727H76.3636V95.4545Z" fill="black"/>
<path d="M84 95.4545H80.1818V99.2727H84V95.4545Z" fill="black"/>
<path d="M87.8182 95.4545H84V99.2727H87.8182V95.4545Z" fill="black"/>
<path d="M95.4545 95.4545H91.6364V99.2727H95.4545V95.4545Z" fill="black"/>
<path d="M110.727 95.4545H106.909V99.2727H110.727V95.4545Z" fill="black"/>
<path d="M122.182 95.4545H118.364V99.2727H122.182V95.4545Z" fill="black"/>
<path d="M3.81818 99.2727H0V103.091H3.81818V99.2727Z" fill="black"/>
<path d="M7.63636 99.2727H3.81818V103.091H7.63636V99.2727Z" fill="black"/>
<path d="M11.4545 99.2727H7.63636V103.091H11.4545V99.2727Z" fill="black"/>
<path d="M15.2727 99.2727H11.4545V103.091H15.2727V99.2727Z" fill="black"/>
<path d="M19.0909 99.2727H15.2727V103.091H19.0909V99.2727Z" fill="black"/>
<path d="M22.9091 99.2727H19.0909V103.091H22.9091V99.2727Z" fill="black"/>
<path d="M26.7273 99.2727H22.9091V103.091H26.7273V99.2727Z" fill="black"/>
<path d="M34.3636 99.2727H30.5455V103.091H34.3636V99.2727Z" fill="black"/>
<path d="M49.6364 99.2727H45.8182V103.091H49.6364V99.2727Z" fill="black"/>
<path d="M57.2727 99.2727H53.4546V103.091H57.2727V99.2727Z" fill="black"/>
<path d="M61.0909 99.2727H57.2727V103.091H61.0909V99.2727Z" fill="black"/>
<path d="M64.9091 99.2727H61.0909V103.091H64.9091V99.2727Z" fill="black"/>
<path d="M72.5455 99.2727H68.7273V103.091H72.5455L72.5455 99.2727Z" fill="black"/>
<path d="M80.1818 99.2727H76.3636V103.091H80.1818V99.2727Z" fill="black"/>
<path d="M87.8182 99.2727H84V103.091H87.8182V99.2727Z" fill="black"/>
<path d="M91.6364 99.2727H87.8182V103.091H91.6364V99.2727Z" fill="black"/>
<path d="M95.4545 99.2727H91.6364V103.091H95.4545V99.2727Z" fill="black"/>
<path d="M103.091 99.2727H99.2727V103.091H103.091V99.2727Z" fill="black"/>
<path d="M110.727 99.2727H106.909V103.091H110.727V99.2727Z" fill="black"/>
<path d="M114.545 99.2727H110.727V103.091H114.545V99.2727Z" fill="black"/>
<path d="M118.364 99.2727H114.545V103.091H118.364V99.2727Z" fill="black"/>
<path d="M122.182 99.2727H118.364V103.091H122.182V99.2727Z" fill="black"/>
<path d="M3.81818 103.091H0V106.909H3.81818V103.091Z" fill="black"/>
<path d="M26.7273 103.091H22.9091V106.909H26.7273V103.091Z" fill="black"/>
<path d="M34.3636 103.091H30.5455V106.909H34.3636V103.091Z" fill="black"/>
<path d="M49.6364 103.091H45.8182V106.909H49.6364V103.091Z" fill="black"/>
<path d="M53.4546 103.091H49.6364V106.909H53.4546V103.091Z" fill="black"/>
<path d="M61.0909 103.091H57.2727V106.909H61.0909V103.091Z" fill="black"/>
<path d="M72.5455 103.091H68.7273V106.909H72.5455V103.091Z" fill="black"/>
<path d="M76.3636 103.091H72.5455V106.909H76.3636V103.091Z" fill="black"/>
<path d="M84 103.091H80.1818V106.909H84V103.091Z" fill="black"/>
<path d="M87.8182 103.091H84V106.909H87.8182V103.091Z" fill="black"/>
<path d="M91.6364 103.091H87.8182V106.909H91.6364V103.091Z" fill="black"/>
<path d="M95.4545 103.091H91.6364V106.909H95.4545V103.091Z" fill="black"/>
<path d="M110.727 103.091H106.909V106.909H110.727V103.091Z" fill="black"/>
<path d="M114.545 103.091H110.727V106.909H114.545V103.091Z" fill="black"/>
<path d="M118.364 103.091H114.545V106.909H118.364V103.091Z" fill="black"/>
<path d="M3.81818 106.909H0V110.727H3.81818V106.909Z" fill="black"/>
<path d="M11.4545 106.909H7.63636V110.727H11.4545V106.909Z" fill="black"/>
<path d="M15.2727 106.909H11.4545V110.727H15.2727V106.909Z" fill="black"/>
<path d="M19.0909 106.909H15.2727V110.727H19.0909V106.909Z" fill="black"/>
<path d="M26.7273 106.909H22.9091V110.727H26.7273V106.909Z" fill="black"/>
<path d="M34.3636 106.909H30.5455V110.727H34.3636V106.909Z" fill="black"/>
<path d="M49.6364 106.909H45.8182V110.727H49.6364V106.909Z" fill="black"/>
<path d="M57.2727 106.909H53.4546V110.727H57.2727V106.909Z" fill="black"/>
<path d="M61.0909 106.909H57.2727V110.727H61.0909V106.909Z" fill="black"/>
<path d="M64.9091 106.909H61.0909V110.727H64.9091V106.909Z" fill="black"/>
<path d="M80.1818 106.909H76.3636V110.727H80.1818V106.909Z" fill="black"/>
<path d="M91.6364 106.909H87.8182V110.727H91.6364V106.909Z" fill="black"/>
<path d="M95.4545 106.909H91.6364V110.727H95.4545V106.909Z" fill="black"/>
<path d="M99.2727 106.909H95.4545V110.727H99.2727V106.909Z" fill="black"/>
<path d="M103.091 106.909H99.2727V110.727H103.091V106.909Z" fill="black"/>
<path d="M106.909 106.909H103.091V110.727H106.909V106.909Z" fill="black"/>
<path d="M110.727 106.909H106.909V110.727H110.727V106.909Z" fill="black"/>
<path d="M114.545 106.909H110.727V110.727H114.545V106.909Z" fill="black"/>
<path d="M118.364 106.909H114.545V110.727H118.364V106.909Z" fill="black"/>
<path d="M3.81818 110.727H0V114.545H3.81818V110.727Z" fill="black"/>
<path d="M11.4545 110.727H7.63636V114.545H11.4545V110.727Z" fill="black"/>
<path d="M15.2727 110.727H11.4545V114.545H15.2727V110.727Z" fill="black"/>
<path d="M19.0909 110.727H15.2727V114.545H19.0909V110.727Z" fill="black"/>
<path d="M26.7273 110.727H22.9091V114.545H26.7273V110.727Z" fill="black"/>
<path d="M34.3636 110.727H30.5455V114.545H34.3636V110.727Z" fill="black"/>
<path d="M38.1818 110.727H34.3636V114.545H38.1818V110.727Z" fill="black"/>
<path d="M42 110.727H38.1818V114.545H42V110.727Z" fill="black"/>
<path d="M49.6364 110.727H45.8182V114.545H49.6364V110.727Z" fill="black"/>
<path d="M64.9091 110.727H61.0909V114.545H64.9091V110.727Z" fill="black"/>
<path d="M68.7273 110.727H64.9091V114.545H68.7273V110.727Z" fill="black"/>
<path d="M72.5455 110.727H68.7273V114.545H72.5455V110.727Z" fill="black"/>
<path d="M80.1818 110.727H76.3636V114.545H80.1818V110.727Z" fill="black"/>
<path d="M95.4545 110.727H91.6364V114.545H95.4545V110.727Z" fill="black"/>
<path d="M103.091 110.727H99.2727V114.545H103.091V110.727Z" fill="black"/>
<path d="M110.727 110.727H106.909V114.545H110.727V110.727Z" fill="black"/>
<path d="M114.545 110.727H110.727V114.545H114.545V110.727Z" fill="black"/>
<path d="M118.364 110.727H114.545V114.545H118.364V110.727Z" fill="black"/>
<path d="M126 110.727H122.182V114.545H126V110.727Z" fill="black"/>
<path d="M3.81818 114.545H0V118.364H3.81818V114.545Z" fill="black"/>
<path d="M11.4545 114.545H7.63636V118.364H11.4545V114.545Z" fill="black"/>
<path d="M15.2727 114.545H11.4545V118.364H15.2727V114.545Z" fill="black"/>
<path d="M19.0909 114.545H15.2727V118.364H19.0909V114.545Z" fill="black"/>
<path d="M26.7273 114.545H22.9091V118.364H26.7273V114.545Z" fill="black"/>
<path d="M38.1818 114.545H34.3636V118.364H38.1818V114.545Z" fill="black"/>
<path d="M68.7273 114.545H64.9091V118.364H68.7273V114.545Z" fill="black"/>
<path d="M84 114.545H80.1818V118.364H84V114.545Z" fill="black"/>
<path d="M87.8182 114.545H84V118.364H87.8182V114.545Z" fill="black"/>
<path d="M99.2727 114.545H95.4545V118.364H99.2727V114.545Z" fill="black"/>
<path d="M114.545 114.545H110.727V118.364H114.545V114.545Z" fill="black"/>
<path d="M3.81818 118.364H0V122.182H3.81818V118.364Z" fill="black"/>
<path d="M26.7273 118.364H22.9091V122.182H26.7273V118.364Z" fill="black"/>
<path d="M38.1818 118.364H34.3636V122.182H38.1818V118.364Z" fill="black"/>
<path d="M42 118.364H38.1818V122.182H42V118.364Z" fill="black"/>
<path d="M45.8182 118.364H42V122.182H45.8182V118.364Z" fill="black"/>
<path d="M57.2727 118.364H53.4546V122.182H57.2727V118.364Z" fill="black"/>
<path d="M64.9091 118.364H61.0909V122.182H64.9091V118.364Z" fill="black"/>
<path d="M68.7273 118.364H64.9091V122.182H68.7273V118.364Z" fill="black"/>
<path d="M72.5455 118.364H68.7273V122.182H72.5455V118.364Z" fill="black"/>
<path d="M76.3636 118.364H72.5455V122.182H76.3636V118.364Z" fill="black"/>
<path d="M84 118.364H80.1818V122.182H84V118.364Z" fill="black"/>
<path d="M87.8182 118.364H84V122.182H87.8182V118.364Z" fill="black"/>
<path d="M91.6364 118.364H87.8182V122.182H91.6364V118.364Z" fill="black"/>
<path d="M95.4545 118.364H91.6364V122.182H95.4545V118.364Z" fill="black"/>
<path d="M99.2727 118.364H95.4545V122.182H99.2727V118.364Z" fill="black"/>
<path d="M103.091 118.364H99.2727V122.182H103.091V118.364Z" fill="black"/>
<path d="M110.727 118.364H106.909V122.182H110.727V118.364Z" fill="black"/>
<path d="M114.545 118.364H110.727V122.182H114.545V118.364Z" fill="black"/>
<path d="M3.81818 122.182H0V126H3.81818V122.182Z" fill="black"/>
<path d="M7.63636 122.182H3.81818V126H7.63636V122.182Z" fill="black"/>
<path d="M11.4545 122.182H7.63636V126H11.4545V122.182Z" fill="black"/>
<path d="M15.2727 122.182H11.4545V126H15.2727V122.182Z" fill="black"/>
<path d="M19.0909 122.182H15.2727V126H19.0909V122.182Z" fill="black"/>
<path d="M22.9091 122.182H19.0909V126H22.9091V122.182Z" fill="black"/>
<path d="M26.7273 122.182H22.9091V126H26.7273V122.182Z" fill="black"/>
<path d="M34.3636 122.182H30.5455V126H34.3636V122.182Z" fill="black"/>
<path d="M45.8182 122.182H42V126H45.8182V122.182Z" fill="black"/>
<path d="M49.6364 122.182H45.8182V126H49.6364V122.182Z" fill="black"/>
<path d="M80.1818 122.182H76.3636V126H80.1818V122.182Z" fill="black"/>
<path d="M91.6364 122.182H87.8182V126H91.6364V122.182Z" fill="black"/>
<path d="M106.909 122.182H103.091V126H106.909V122.182Z" fill="black"/>
<path d="M110.727 122.182H106.909V126H110.727V122.182Z" fill="black"/>
<path d="M126 122.182H122.182V126H126V122.182Z" fill="black"/>
</svg>
