<svg width="20" height="20" viewBox="0 0 20 20" fill="none" xmlns="http://www.w3.org/2000/svg">
<path d="M2.5 5.83333C2.5 3.99238 3.99238 2.5 5.83333 2.5H14.1667C16.0076 2.5 17.5 3.99238 17.5 5.83333V14.1667C17.5 16.0076 16.0076 17.5 14.1667 17.5H5.83333C3.99238 17.5 2.5 16.0076 2.5 14.1667V5.83333Z" stroke="white" stroke-width="2"/>
<path d="M12.5 7.5L7.5 12.5" stroke="white" stroke-width="2" stroke-linecap="round" stroke-linejoin="round"/>
<path d="M13.3333 12.0834C13.3333 12.7737 12.7737 13.3334 12.0833 13.3334C11.393 13.3334 10.8333 12.7737 10.8333 12.0834C10.8333 11.393 11.393 10.8334 12.0833 10.8334C12.7737 10.8334 13.3333 11.393 13.3333 12.0834Z" fill="white"/>
<path d="M9.16667 7.91669C9.16667 8.60704 8.60703 9.16669 7.91667 9.16669C7.22632 9.16669 6.66667 8.60704 6.66667 7.91669C6.66667 7.22633 7.22632 6.66669 7.91667 6.66669C8.60703 6.66669 9.16667 7.22633 9.16667 7.91669Z" fill="white"/>
</svg>
