<svg width="28" height="28" viewBox="0 0 28 28" fill="none" xmlns="http://www.w3.org/2000/svg">
<g id="for button">
<path id="Vector" d="M24.4996 14.1455C24.4526 12.8364 23.3866 11.8141 22.113 11.8585C21.5486 11.8787 21.0117 12.1171 20.6041 12.5171C18.8092 11.2564 16.7008 10.5655 14.5336 10.517L15.5565 5.44593L18.9307 6.17729C19.0248 7.07028 19.8007 7.71679 20.6668 7.61982C21.5329 7.52284 22.16 6.72278 22.0659 5.82979C21.9719 4.9368 21.1959 4.29029 20.3298 4.38726C19.8321 4.43979 19.3853 4.7388 19.1384 5.18328L15.2743 4.38726C15.0117 4.32665 14.7491 4.49636 14.6904 4.77113C14.6904 4.77517 14.6904 4.77517 14.6904 4.77921L13.5264 10.42C11.3318 10.4564 9.19591 11.1514 7.37749 12.4202C6.4526 11.5231 4.99473 11.5676 4.12471 12.5252C3.25469 13.4788 3.2978 14.982 4.2266 15.879C4.40688 16.0527 4.61458 16.2022 4.84581 16.3073C4.83013 16.5457 4.83013 16.7841 4.84581 17.0225C4.84581 20.6632 8.96077 23.625 14.0359 23.625C19.111 23.625 23.226 20.6672 23.226 17.0225C23.2416 16.7841 23.2416 16.5457 23.226 16.3073C24.0176 15.8992 24.5153 15.0587 24.4996 14.1455ZM8.73346 15.7739C8.73346 14.8769 9.4428 14.1455 10.3128 14.1455C11.1828 14.1455 11.8922 14.8769 11.8922 15.7739C11.8922 16.671 11.1828 17.4023 10.3128 17.4023C9.43888 17.3943 8.73346 16.671 8.73346 15.7739ZM17.8922 20.2429C16.7714 21.1117 15.3997 21.5562 13.9967 21.4956C12.5937 21.5562 11.222 21.1117 10.1012 20.2429C9.95228 20.0571 9.97971 19.7783 10.16 19.6247C10.3167 19.4914 10.5401 19.4914 10.7008 19.6247C11.6492 20.3399 12.8053 20.7036 13.981 20.647C15.1567 20.7117 16.3167 20.3642 17.2769 19.657C17.4493 19.4833 17.7315 19.4873 17.9 19.6651C18.0685 19.8429 18.0646 20.1338 17.8922 20.3076V20.2429ZM17.61 17.4589C16.74 17.4589 16.0307 16.7275 16.0307 15.8305C16.0307 14.9335 16.74 14.2021 17.61 14.2021C18.48 14.2021 19.1894 14.9335 19.1894 15.8305C19.2247 16.7275 18.5467 17.4831 17.6766 17.5195C17.6492 17.5195 17.6257 17.5195 17.5983 17.5195L17.61 17.4589Z" fill="#8A93A6"/>
</g>
</svg>
