<svg width="33" height="32" viewBox="0 0 33 32" fill="none" xmlns="http://www.w3.org/2000/svg">
<rect x="0.333496" width="32" height="32" rx="8" fill="#C24A44"/>
<path d="M7 10C7 8.34315 8.34315 7 10 7H11C12.6569 7 14 8.34315 14 10V11C14 12.6569 12.6569 14 11 14H10C8.34315 14 7 12.6569 7 11V10Z" stroke="white" stroke-width="2"/>
<path d="M18 10C18 8.34315 19.3431 7 21 7H22C23.6569 7 25 8.34315 25 10V11C25 12.6569 23.6569 14 22 14H21C19.3431 14 18 12.6569 18 11V10Z" stroke="white" stroke-width="2"/>
<path d="M18 21C18 19.3431 19.3431 18 21 18H22C23.6569 18 25 19.3431 25 21V22C25 23.6569 23.6569 25 22 25H21C19.3431 25 18 23.6569 18 22V21Z" stroke="white" stroke-width="2"/>
<path d="M7 21C7 19.3431 8.34315 18 10 18H11C12.6569 18 14 19.3431 14 21V22C14 23.6569 12.6569 25 11 25H10C8.34315 25 7 23.6569 7 22V21Z" stroke="white" stroke-width="2"/>
</svg>
