<svg width="33" height="32" viewBox="0 0 33 32" fill="none" xmlns="http://www.w3.org/2000/svg">
<rect x="0.666626" width="32" height="32" rx="8" fill="#6556D9"/>
<path d="M24.0001 16V10.5086C24.0001 9.61569 23.4082 8.83092 22.5496 8.5856L17.5496 7.15703C17.1905 7.05443 16.8098 7.05443 16.4507 7.15703L11.4507 8.5856C10.5921 8.83092 10.0001 9.61569 10.0001 10.5087V15.8831C10.0001 18.4667 11.2478 20.8913 13.3502 22.393L15.0001 23.5715" stroke="white" stroke-width="2" stroke-linecap="round"/>
<path d="M24.0001 22C24.0001 23.6569 22.657 25 21.0001 25C19.3433 25 18.0001 23.6569 18.0001 22C18.0001 20.3431 19.3433 19 21.0001 19C22.657 19 24.0001 20.3431 24.0001 22Z" stroke="white" stroke-width="2"/>
</svg>
